<?xml version="1.0" encoding="UTF-8"?>
<svg id="a" data-name="Layer 1" xmlns="http://www.w3.org/2000/svg" viewBox="0 0 900 556.59">
  <defs>
    <style>
      .b {
        stroke-width: 0px;
      }
    </style>
  </defs>
  <path class="b" d="M546.09,256.24C574.45,130.22,630.1,0,768.73,0c74.56,0,131.27,54.61,131.27,138.62,0,149.13-157.53,193.23-157.53,310.85,0,34.65,17.85,57.76,47.26,57.76,33.61,0,60.91-42.01,60.91-93.46,0-40.96-17.85-59.86-17.85-71.41,0-3.15,2.1-9.45,8.4-9.45,5.25,0,8.4,2.1,14.7,16.8,8.4,19.95,12.6,43.06,12.6,65.11,0,70.36-42.01,141.77-152.28,141.77-90.32,0-162.78-50.41-162.78-143.88,0-150.17,149.12-217.38,149.12-298.25,0-26.26-14.7-37.81-30.45-37.81-60.91,0-96.62,135.47-108.17,184.83-28.35,126.02-32.56,206.88-77.71,252.04-10.69,10.69-49.96,42.71-103.97,40.95-38.72-1.26-85.26-20.13-107.26-59.19-22.43-39.81-10.04-84.05,0-118,35.37-119.58,146.65-221.07,143-266-.35-4.3-1.28-16.35-10-24-11.55-10.13-29.83-6.47-32-6-37.95,8.13-57.66,76.44-87.76,180.76-3.97,13.75-7.81,27.85-7.81,27.85h0c-7.18,27.33-9.49,42.16-27.43,105.39-25.66,90.46-38.77,123.2-71.15,144.01-10.2,6.56-36.63,17.29-68.43,17.29C38.86,556.59,0,490.43,0,432.67c0-126.02,141.77-217.39,141.77-347.61,0-30.46-16.8-52.51-40.96-52.51-30.46,0-51.46,33.6-51.46,79.81s17.85,61.96,17.85,75.61c0,5.25-4.2,9.45-8.4,9.45-6.3,0-9.45-5.25-13.65-14.7-9.45-23.1-14.7-47.25-14.7-70.36C30.45,52.51,61.96,0,128.12,0c88.21,0,129.17,74.56,129.17,163.83,0,70.36-24.15,127.07-24.15,145.97,0,7.35,2.1,10.5,6.3,10.5,6.3,0,9.45-11.55,14.7-30.45,8.4-32.56,16.8-75.61,24.15-100.82C306.65,89.27,359.16,0,457.88,0c61.96,0,101.87,46.21,101.87,103.96,0,175.38-144.92,253.1-144.92,348.66,0,28.35,15.75,45.16,38.86,45.16,58.81,0,64.06-115.52,92.42-241.54Z"/>
</svg>